<svg width="360" height="56" viewBox="0 0 360 56" fill="none" xmlns="http://www.w3.org/2000/svg">
<g filter="url(#filter0_d_37_846)">
<rect width="360" height="48" transform="translate(0 4)" fill="#FDDE67"/>
<g clip-path="url(#clip0_37_846)">
<path d="M27.9999 17.0001C27.9999 16.7349 28.1053 16.4805 28.2928 16.293C28.4803 16.1055 28.7347 16.0001 28.9999 16.0001C31.6512 16.003 34.193 17.0575 36.0678 18.9322C37.9425 20.807 38.997 23.3488 38.9999 26.0001C38.9999 26.2653 38.8945 26.5197 38.707 26.7072C38.5195 26.8947 38.2651 27.0001 37.9999 27.0001C37.7347 27.0001 37.4803 26.8947 37.2928 26.7072C37.1053 26.5197 36.9999 26.2653 36.9999 26.0001C36.9975 23.8791 36.1539 21.8457 34.6541 20.3459C33.1544 18.8461 31.1209 18.0025 28.9999 18.0001C28.7347 18.0001 28.4803 17.8947 28.2928 17.7072C28.1053 17.5197 27.9999 17.2653 27.9999 17.0001ZM28.9999 22.0001C30.0608 22.0001 31.0782 22.4215 31.8283 23.1717C32.5785 23.9218 32.9999 24.9392 32.9999 26.0001C32.9999 26.2653 33.1053 26.5197 33.2928 26.7072C33.4803 26.8947 33.7347 27.0001 33.9999 27.0001C34.2651 27.0001 34.5195 26.8947 34.707 26.7072C34.8945 26.5197 34.9999 26.2653 34.9999 26.0001C34.9983 24.4093 34.3657 22.8841 33.2408 21.7592C32.1159 20.6343 30.5907 20.0017 28.9999 20.0001C28.7347 20.0001 28.4803 20.1055 28.2928 20.293C28.1053 20.4805 27.9999 20.7349 27.9999 21.0001C27.9999 21.2653 28.1053 21.5197 28.2928 21.7072C28.4803 21.8947 28.7347 22.0001 28.9999 22.0001ZM38.0929 32.7391C38.6724 33.3202 38.9978 34.1074 38.9978 34.9281C38.9978 35.7488 38.6724 36.536 38.0929 37.1171L37.1829 38.1661C28.9929 46.0071 9.06293 26.0821 16.7829 17.8661L17.9329 16.8661C18.5147 16.3028 19.2949 15.9912 20.1046 15.9986C20.9144 16.0061 21.6887 16.3321 22.2599 16.9061C22.2909 16.9371 24.1439 19.3441 24.1439 19.3441C24.6937 19.9217 24.9998 20.689 24.9985 21.4865C24.9972 22.284 24.6886 23.0503 24.1369 23.6261L22.9789 25.0821C23.6198 26.6392 24.562 28.0543 25.7514 29.2462C26.9409 30.438 28.3541 31.3831 29.9099 32.0271L31.3749 30.8621C31.9508 30.3108 32.717 30.0026 33.5142 30.0015C34.3114 30.0004 35.0785 30.3064 35.6559 30.8561C35.6559 30.8561 38.0619 32.7081 38.0929 32.7391ZM36.7169 34.1931C36.7169 34.1931 34.3239 32.3521 34.2929 32.3211C34.0869 32.1168 33.8085 32.0022 33.5184 32.0022C33.2283 32.0022 32.9499 32.1168 32.7439 32.3211C32.7169 32.3491 30.6999 33.9561 30.6999 33.9561C30.564 34.0643 30.4022 34.1352 30.2306 34.1619C30.0589 34.1885 29.8832 34.17 29.7209 34.1081C27.7054 33.3577 25.8746 32.1828 24.3527 30.6632C22.8308 29.1435 21.6533 27.3145 20.8999 25.3001C20.8331 25.1356 20.8113 24.9562 20.8368 24.7804C20.8623 24.6047 20.9341 24.4389 21.0449 24.3001C21.0449 24.3001 22.6519 22.2821 22.6789 22.2561C22.8832 22.0501 22.9978 21.7717 22.9978 21.4816C22.9978 21.1915 22.8832 20.9131 22.6789 20.7071C22.6479 20.6771 20.8069 18.2821 20.8069 18.2821C20.5978 18.0946 20.3249 17.9942 20.0442 18.0014C19.7634 18.0087 19.4961 18.1231 19.2969 18.3211L18.1469 19.3211C12.5049 26.1051 29.7759 42.4181 35.7209 36.8001L36.6319 35.7501C36.8454 35.5524 36.9736 35.2794 36.9895 34.9888C37.0053 34.6982 36.9076 34.4129 36.7169 34.1931Z" fill="#181818" fill-opacity="0.8"/>
</g>
<g clip-path="url(#clip1_37_846)">
<path d="M111.5 24C111.503 22.7048 111.191 21.4283 110.592 20.2802C109.992 19.1321 109.123 18.1467 108.059 17.4086C106.994 16.6706 105.767 16.2019 104.482 16.043C103.196 15.884 101.892 16.0395 100.68 16.4961C99.4675 16.9526 98.3845 17.6967 97.5235 18.6642C96.6625 19.6317 96.0493 20.7938 95.7365 22.0506C95.4238 23.3074 95.4208 24.6214 95.7279 25.8796C96.0351 27.1378 96.6431 28.3026 97.4997 29.274V37.5C97.4997 37.9709 97.6327 38.4323 97.8835 38.8309C98.1342 39.2296 98.4924 39.5493 98.9169 39.7533C99.3414 39.9573 99.8148 40.0372 100.283 39.9839C100.751 39.9306 101.194 39.7462 101.562 39.452L103.5 37.9L105.438 39.45C105.805 39.7441 106.248 39.9285 106.716 39.9819C107.184 40.0353 107.657 39.9555 108.082 39.7518C108.506 39.548 108.864 39.2286 109.115 38.8302C109.366 38.4318 109.499 37.9707 109.5 37.5V29.274C110.788 27.8192 111.499 25.9432 111.5 24ZM103.5 18C104.686 18 105.846 18.3519 106.833 19.0111C107.82 19.6704 108.589 20.6075 109.043 21.7039C109.497 22.8002 109.616 24.0066 109.384 25.1705C109.153 26.3344 108.581 27.4035 107.742 28.2426C106.903 29.0817 105.834 29.6532 104.67 29.8847C103.506 30.1162 102.3 29.9974 101.204 29.5432C100.107 29.0891 99.1702 28.3201 98.5109 27.3334C97.8516 26.3467 97.4997 25.1866 97.4997 24C97.5013 22.4091 98.134 20.8839 99.2589 19.7591C100.384 18.6342 101.909 18.0015 103.5 18ZM107.217 37.948C107.132 37.9899 107.037 38.0065 106.943 37.9959C106.85 37.9852 106.761 37.9478 106.688 37.888L103.5 35.337L100.313 37.888C100.239 37.9469 100.151 37.9839 100.057 37.9947C99.9639 38.0056 99.8693 37.9898 99.7844 37.9493C99.6995 37.9088 99.6277 37.8451 99.5773 37.7656C99.527 37.6861 99.5001 37.594 99.4997 37.5V30.918C100.714 31.6265 102.094 31.9999 103.5 31.9999C104.905 31.9999 106.286 31.6265 107.5 30.918V37.5C107.501 37.594 107.475 37.6863 107.425 37.7658C107.374 37.8453 107.302 37.9086 107.217 37.948Z" fill="#181818" fill-opacity="0.8"/>
</g>
<g clip-path="url(#clip2_37_846)">
<path d="M191.121 25.0689L183.536 17.4829C182.598 16.5469 181.326 16.0213 180 16.0213C178.675 16.0213 177.403 16.5469 176.464 17.4829L168.879 25.0689C168.6 25.3467 168.378 25.6772 168.227 26.0413C168.076 26.4054 167.999 26.7958 168 27.1899V37.0069C168 37.8026 168.316 38.5656 168.879 39.1282C169.442 39.6908 170.205 40.0069 171 40.0069H189C189.796 40.0069 190.559 39.6908 191.122 39.1282C191.684 38.5656 192 37.8026 192 37.0069V27.1899C192.001 26.7958 191.924 26.4054 191.773 26.0413C191.622 25.6772 191.401 25.3467 191.121 25.0689ZM183 38.0069H177V34.0729C177 33.2773 177.316 32.5142 177.879 31.9516C178.442 31.389 179.205 31.0729 180 31.0729C180.796 31.0729 181.559 31.389 182.122 31.9516C182.684 32.5142 183 33.2773 183 34.0729V38.0069ZM190 37.0069C190 37.2721 189.895 37.5265 189.707 37.714C189.52 37.9016 189.265 38.0069 189 38.0069H185V34.0729C185 32.7468 184.473 31.4751 183.536 30.5374C182.598 29.5997 181.326 29.0729 180 29.0729C178.674 29.0729 177.402 29.5997 176.465 30.5374C175.527 31.4751 175 32.7468 175 34.0729V38.0069H171C170.735 38.0069 170.481 37.9016 170.293 37.714C170.106 37.5265 170 37.2721 170 37.0069V27.1899C170.001 26.9249 170.106 26.6709 170.293 26.4829L177.878 18.8999C178.442 18.3388 179.205 18.0239 180 18.0239C180.796 18.0239 181.559 18.3388 182.122 18.8999L189.707 26.4859C189.893 26.6732 189.999 26.9259 190 27.1899V37.0069Z" fill="#181818"/>
</g>
<g clip-path="url(#clip3_37_846)">
<path d="M268.5 26.0001C268.5 25.9271 268.492 25.8544 268.476 25.7831L267.176 19.9151C266.934 18.8014 266.317 17.8045 265.428 17.0917C264.539 16.3789 263.432 15.9935 262.292 16.0001H250.708C249.569 15.9944 248.463 16.3803 247.574 17.093C246.686 17.8057 246.069 18.8021 245.828 19.9151L244.524 25.7831C244.508 25.8544 244.5 25.9271 244.5 26.0001V27.0001C244.499 27.9737 244.855 28.9139 245.5 29.6431V35.0001C245.502 36.3257 246.029 37.5966 246.966 38.5339C247.904 39.4713 249.174 39.9986 250.5 40.0001H262.5C263.826 39.9986 265.096 39.4713 266.034 38.5339C266.971 37.5966 267.498 36.3257 267.5 35.0001V29.6431C268.145 28.9139 268.501 27.9737 268.5 27.0001V26.0001ZM246.5 26.1091L247.78 20.3491C247.925 19.6814 248.295 19.0837 248.828 18.6561C249.361 18.2285 250.025 17.9969 250.708 18.0001H251.5V21.0001C251.5 21.2654 251.605 21.5197 251.793 21.7073C251.98 21.8948 252.235 22.0001 252.5 22.0001C252.765 22.0001 253.02 21.8948 253.207 21.7073C253.395 21.5197 253.5 21.2654 253.5 21.0001V18.0001H259.5V21.0001C259.5 21.2654 259.605 21.5197 259.793 21.7073C259.98 21.8948 260.235 22.0001 260.5 22.0001C260.765 22.0001 261.02 21.8948 261.207 21.7073C261.395 21.5197 261.5 21.2654 261.5 21.0001V18.0001H262.292C262.975 17.9969 263.639 18.2285 264.172 18.6561C264.705 19.0837 265.075 19.6814 265.22 20.3491L266.5 26.1091V27.0001C266.5 27.5306 266.289 28.0393 265.914 28.4144C265.539 28.7894 265.03 29.0001 264.5 29.0001H263.5C262.97 29.0001 262.461 28.7894 262.086 28.4144C261.711 28.0393 261.5 27.5306 261.5 27.0001C261.5 26.7349 261.395 26.4806 261.207 26.293C261.02 26.1055 260.765 26.0001 260.5 26.0001C260.235 26.0001 259.98 26.1055 259.793 26.293C259.605 26.4806 259.5 26.7349 259.5 27.0001C259.5 27.5306 259.289 28.0393 258.914 28.4144C258.539 28.7894 258.03 29.0001 257.5 29.0001H255.5C254.97 29.0001 254.461 28.7894 254.086 28.4144C253.711 28.0393 253.5 27.5306 253.5 27.0001C253.5 26.7349 253.395 26.4806 253.207 26.293C253.02 26.1055 252.765 26.0001 252.5 26.0001C252.235 26.0001 251.98 26.1055 251.793 26.293C251.605 26.4806 251.5 26.7349 251.5 27.0001C251.5 27.5306 251.289 28.0393 250.914 28.4144C250.539 28.7894 250.03 29.0001 249.5 29.0001H248.5C247.97 29.0001 247.461 28.7894 247.086 28.4144C246.711 28.0393 246.5 27.5306 246.5 27.0001V26.1091ZM262.5 38.0001H250.5C249.704 38.0001 248.941 37.6841 248.379 37.1215C247.816 36.5589 247.5 35.7958 247.5 35.0001V30.8731C247.827 30.9577 248.163 31.0004 248.5 31.0001H249.5C250.068 31.0004 250.629 30.8795 251.147 30.6455C251.664 30.4115 252.125 30.0698 252.5 29.6431C252.875 30.0698 253.336 30.4115 253.853 30.6455C254.371 30.8795 254.932 31.0004 255.5 31.0001H257.5C258.068 31.0004 258.629 30.8795 259.147 30.6455C259.664 30.4115 260.125 30.0698 260.5 29.6431C260.875 30.0698 261.336 30.4115 261.853 30.6455C262.371 30.8795 262.932 31.0004 263.5 31.0001H264.5C264.837 31.0004 265.173 30.9577 265.5 30.8731V35.0001C265.5 35.7958 265.184 36.5589 264.621 37.1215C264.059 37.6841 263.296 38.0001 262.5 38.0001Z" fill="#181818" fill-opacity="0.8"/>
</g>
<g clip-path="url(#clip4_37_846)">
<path d="M343.713 20.077C343.432 19.7394 343.08 19.468 342.682 19.2818C342.284 19.0957 341.849 18.9995 341.41 19H325.242L325.2 18.649C325.114 17.9194 324.763 17.2467 324.214 16.7585C323.666 16.2702 322.957 16.0003 322.222 16H322C321.735 16 321.48 16.1054 321.293 16.2929C321.105 16.4804 321 16.7348 321 17C321 17.2652 321.105 17.5196 321.293 17.7071C321.48 17.8946 321.735 18 322 18H322.222C322.467 18 322.703 18.09 322.886 18.2527C323.069 18.4155 323.186 18.6397 323.215 18.883L324.591 30.583C324.734 31.7998 325.318 32.9218 326.234 33.736C327.149 34.5502 328.332 35 329.557 35H340C340.265 35 340.52 34.8946 340.707 34.7071C340.895 34.5196 341 34.2652 341 34C341 33.7348 340.895 33.4804 340.707 33.2929C340.52 33.1054 340.265 33 340 33H329.557C328.938 32.9983 328.335 32.8051 327.83 32.4471C327.325 32.089 326.943 31.5835 326.737 31H338.657C339.829 31.0001 340.964 30.5882 341.864 29.8364C342.763 29.0846 343.37 28.0407 343.578 26.887L344.363 22.533C344.441 22.101 344.424 21.6571 344.311 21.2326C344.199 20.8082 343.995 20.4137 343.713 20.077ZM342.4 22.178L341.614 26.532C341.489 27.225 341.124 27.852 340.584 28.3032C340.043 28.7544 339.361 29.0011 338.657 29H326.419L325.478 21H341.41C341.557 20.9991 341.702 21.0306 341.836 21.0923C341.969 21.1539 342.087 21.2441 342.182 21.3566C342.276 21.4691 342.345 21.601 342.382 21.7429C342.42 21.8849 342.426 22.0334 342.4 22.178Z" fill="#181818" fill-opacity="0.8"/>
<path d="M328 40.0006C329.105 40.0006 330 39.1052 330 38.0006C330 36.8961 329.105 36.0006 328 36.0006C326.896 36.0006 326 36.8961 326 38.0006C326 39.1052 326.896 40.0006 328 40.0006Z" fill="#181818" fill-opacity="0.8"/>
<path d="M338 40.0006C339.105 40.0006 340 39.1052 340 38.0006C340 36.8961 339.105 36.0006 338 36.0006C336.895 36.0006 336 36.8961 336 38.0006C336 39.1052 336.895 40.0006 338 40.0006Z" fill="#181818" fill-opacity="0.8"/>
</g>
</g>
<defs>
<filter id="filter0_d_37_846" x="-4" y="0" width="368" height="56" filterUnits="userSpaceOnUse" color-interpolation-filters="sRGB">
<feFlood flood-opacity="0" result="BackgroundImageFix"/>
<feColorMatrix in="SourceAlpha" type="matrix" values="0 0 0 0 0 0 0 0 0 0 0 0 0 0 0 0 0 0 127 0" result="hardAlpha"/>
<feOffset/>
<feGaussianBlur stdDeviation="2"/>
<feComposite in2="hardAlpha" operator="out"/>
<feColorMatrix type="matrix" values="0 0 0 0 0 0 0 0 0 0 0 0 0 0 0 0 0 0 0.25 0"/>
<feBlend mode="normal" in2="BackgroundImageFix" result="effect1_dropShadow_37_846"/>
<feBlend mode="normal" in="SourceGraphic" in2="effect1_dropShadow_37_846" result="shape"/>
</filter>
<clipPath id="clip0_37_846">
<rect width="24" height="24" fill="white" transform="translate(15 16)"/>
</clipPath>
<clipPath id="clip1_37_846">
<rect width="24" height="24" fill="white" transform="translate(91.5 16)"/>
</clipPath>
<clipPath id="clip2_37_846">
<rect width="24" height="24" fill="white" transform="translate(168 16)"/>
</clipPath>
<clipPath id="clip3_37_846">
<rect width="24" height="24" fill="white" transform="translate(244.5 16)"/>
</clipPath>
<clipPath id="clip4_37_846">
<rect width="24" height="24" fill="white" transform="translate(321 16)"/>
</clipPath>
</defs>
</svg>
